<svg xmlns="http://www.w3.org/2000/svg" width="400" height="400" viewBox="0 0 400 400">
  <defs>
    <linearGradient id="bg8" x1="0%" y1="0%" x2="100%" y2="100%">
      <stop offset="0%" stop-color="#27272a"/>
      <stop offset="100%" stop-color="#18181b"/>
    </linearGradient>
    <radialGradient id="glow8" cx="50%" cy="45%" r="30%">
      <stop offset="0%" stop-color="#fbbf24" stop-opacity="0.15"/>
      <stop offset="100%" stop-color="#fbbf24" stop-opacity="0"/>
    </radialGradient>
  </defs>
  <rect width="400" height="400" fill="url(#bg8)"/>
  <circle cx="200" cy="170" r="80" fill="url(#glow8)"/>
  <!-- Clock / inevitability symbol -->
  <circle cx="200" cy="170" r="55" fill="none" stroke="#3f3f46" stroke-width="2"/>
  <circle cx="200" cy="170" r="50" fill="none" stroke="#3f3f46" stroke-width="1"/>
  <!-- Clock hands -->
  <line x1="200" y1="170" x2="200" y2="130" stroke="#fbbf24" stroke-width="2.5" stroke-linecap="round" opacity="0.6"/>
  <line x1="200" y1="170" x2="230" y2="180" stroke="#fbbf24" stroke-width="2" stroke-linecap="round" opacity="0.4"/>
  <circle cx="200" cy="170" r="4" fill="#fbbf24" opacity="0.5"/>
  <!-- Hour marks -->
  <g opacity="0.3" fill="#fbbf24">
    <circle cx="200" cy="120" r="2.5"/>
    <circle cx="243" cy="145" r="2.5"/>
    <circle cx="250" cy="170" r="2.5"/>
    <circle cx="243" cy="195" r="2.5"/>
    <circle cx="200" cy="220" r="2.5"/>
    <circle cx="157" cy="195" r="2.5"/>
    <circle cx="150" cy="170" r="2.5"/>
    <circle cx="157" cy="145" r="2.5"/>
  </g>
  <!-- Title -->
  <text x="200" y="310" text-anchor="middle" font-family="system-ui, sans-serif" font-size="18" font-weight="700" fill="white">CA D'VAIT ARRIVER</text>
  <text x="200" y="335" text-anchor="middle" font-family="system-ui, sans-serif" font-size="12" fill="#a1a1aa">FDY PHENOMEN</text>
  <text x="200" y="358" text-anchor="middle" font-family="system-ui, sans-serif" font-size="11" fill="#fbbf24">2015 - ALBUM</text>
  <rect x="0" y="0" width="400" height="3" fill="#fbbf24"/>
  <rect x="0" y="397" width="400" height="3" fill="#fbbf24" opacity="0.3"/>
</svg>